<svg width="551" height="573" viewBox="0 0 551 573" fill="none" xmlns="http://www.w3.org/2000/svg">
<path d="M117.503 0.535778C120.236 1.18245 123.03 1.59244 125.883 1.76577C130.416 2.05244 133.23 2.27244 134.323 2.42578C142.31 3.58578 149.83 4.84578 156.883 6.20578C167.883 8.32578 180.143 11.7558 193.663 16.4958C196.976 17.6625 198.816 18.3925 199.183 18.6858C199.228 18.721 199.262 18.767 199.284 18.8195C199.305 18.872 199.313 18.9292 199.306 18.9855C199.299 19.0418 199.277 19.0953 199.244 19.1409C199.21 19.1865 199.165 19.2226 199.113 19.2458C196.126 20.4925 192.836 22.2458 189.243 24.5058C183.553 28.0958 181.023 29.5758 176.893 33.7158C171.653 38.9691 167.4 44.5224 164.133 50.3758C163.999 50.619 163.966 50.9051 164.041 51.1725C164.116 51.4399 164.292 51.6673 164.533 51.8058L170.873 55.4658C170.985 55.5295 171.109 55.5702 171.236 55.5855C171.364 55.6008 171.493 55.5905 171.617 55.555C171.74 55.5195 171.854 55.4597 171.953 55.3791C172.052 55.2985 172.134 55.1987 172.193 55.0858C178.803 42.4858 187.223 30.8058 198.533 22.1058C200.42 20.6591 201.716 19.7991 202.423 19.5258C203.896 21.2858 205.356 22.5558 206.803 23.3358C215.383 27.9758 225.323 32.8458 232.403 37.8858C241.483 44.3458 249.3 52.0658 255.853 61.0458C255.94 61.1643 256.053 61.2611 256.183 61.3288C256.314 61.3964 256.457 61.433 256.603 61.4358C262.596 61.5158 268.393 60.6091 273.993 58.7158C274.051 58.6957 274.113 58.6892 274.174 58.6968C274.235 58.7045 274.293 58.7261 274.344 58.7599C274.396 58.7938 274.438 58.839 274.469 58.892C274.5 58.9451 274.519 59.0045 274.523 59.0658L274.893 63.6858L274.963 124.776L274.843 152.936L274.203 153.746C259.703 162.766 247.653 165.896 229.523 169.866C225.556 170.732 219.026 172.799 209.933 176.066C209.771 176.123 209.635 176.239 209.554 176.39C209.473 176.542 209.451 176.719 209.493 176.886C211.853 186.316 215.543 197.946 217.953 209.766C218 210.018 218.073 210.263 218.173 210.496C219.333 213.336 219.506 215.899 218.693 218.186C215.186 200.939 210.696 184.082 205.223 167.616C203.77 163.256 202.14 158.976 200.333 154.776C197.743 148.746 196.633 145.446 192.263 142.116C188.636 139.356 184.986 136.649 181.313 133.996L180.863 133.176C180.713 132.889 180.647 132.563 180.673 132.236C181.533 122.626 184.063 115.176 186.763 106.726C188.043 103.419 188.75 100.376 188.883 97.5958C190.883 80.5691 185.153 67.3758 171.693 58.0158C168.96 55.3291 165.956 53.2924 162.683 51.9058C158.763 50.2458 155.413 49.0958 152.633 48.4558C135.7 44.5291 118.583 44.1425 101.283 47.2958C78.2631 51.4358 60.8331 63.7658 45.1431 80.5558L42.0631 83.6858C29.1031 98.2925 17.6597 114.019 7.73306 130.866C6.28639 133.319 4.53974 136.612 2.49307 140.746C2.46772 140.804 2.4222 140.851 2.36493 140.877C2.30766 140.902 2.24251 140.906 2.18153 140.886C2.12055 140.867 2.06788 140.826 2.03323 140.77C1.99858 140.715 1.98432 140.65 1.99307 140.586C3.49307 129.346 5.55639 118.716 8.18306 108.696C8.20306 108.629 8.49307 107.772 9.05307 106.126C9.6264 104.426 9.57306 103.012 8.89306 101.886C12.6064 86.7391 16.9597 72.4558 21.9531 59.0358C27.2131 44.9158 35.3931 31.0258 46.3631 20.2058C55.9431 10.7791 67.1564 4.90245 80.0031 2.57579C92.1764 0.375787 104.676 -0.304222 117.503 0.535778ZM12.6931 95.3258C19.3031 84.6458 25.7131 75.0358 34.6131 64.1158C40.5531 56.8291 46.1764 50.9891 51.4831 46.5958C65.5364 34.9691 81.9197 27.6891 100.633 24.7558C104.063 24.2158 110.943 23.0058 115.433 23.0758C118.086 23.1158 120.44 23.0458 122.493 22.8658C122.547 22.8602 122.599 22.8431 122.646 22.8158C122.692 22.7885 122.732 22.7516 122.763 22.7077C122.793 22.6638 122.814 22.614 122.822 22.5619C122.831 22.5097 122.828 22.4564 122.813 22.4058C120.713 14.4191 116.7 7.44245 110.773 1.47578C110.568 1.26425 110.288 1.1421 109.993 1.13578C101.06 0.895784 91.5131 1.64578 81.3531 3.38578C64.0031 6.34578 49.8831 15.7658 39.4531 29.5458C34.9131 35.5325 31.8364 40.1491 30.223 43.3958C23.3364 57.2624 17.7964 72.3791 13.6031 88.7458C12.9497 91.2925 12.5597 93.4591 12.4331 95.2458C12.4312 95.2771 12.4399 95.3081 12.4578 95.3339C12.4757 95.3596 12.5017 95.3787 12.5316 95.3879C12.5616 95.3971 12.5938 95.396 12.6231 95.3848C12.6524 95.3735 12.677 95.3527 12.6931 95.3258Z" fill="#6694C3"/>
<path d="M202.413 18.5158C202.513 18.7958 202.516 19.1324 202.423 19.5258C201.716 19.7991 200.42 20.6591 198.533 22.1058C187.223 30.8058 178.803 42.4858 172.193 55.0858C172.134 55.1987 172.052 55.2985 171.953 55.3791C171.854 55.4597 171.74 55.5195 171.617 55.555C171.493 55.5905 171.364 55.6008 171.236 55.5855C171.109 55.5702 170.985 55.5295 170.873 55.4658L164.533 51.8058C164.292 51.6673 164.116 51.4399 164.041 51.1725C163.966 50.9051 163.999 50.619 164.133 50.3758C167.4 44.5224 171.653 38.9691 176.893 33.7158C181.023 29.5758 183.553 28.0958 189.243 24.5058C192.836 22.2458 196.126 20.4924 199.113 19.2458C199.165 19.2226 199.21 19.1865 199.243 19.1409C199.277 19.0953 199.299 19.0418 199.306 18.9855C199.313 18.9292 199.305 18.872 199.284 18.8195C199.262 18.767 199.228 18.721 199.183 18.6858C198.816 18.3924 196.976 17.6624 193.663 16.4958C180.143 11.7558 167.883 8.32576 156.883 6.20576C149.83 4.84576 142.31 3.58577 134.323 2.42577C133.23 2.27243 130.416 2.05243 125.883 1.76576C123.03 1.59243 120.236 1.18243 117.503 0.535767C137.683 1.41577 157.056 4.48577 175.623 9.74577C183.503 11.9791 192.433 14.9024 202.413 18.5158Z" fill="#5683B5"/>
<path d="M542.223 101.406C540.29 100.666 538.976 98.9458 538.283 96.2458C538.19 95.8943 538.049 95.5577 537.863 95.2458C530.076 82.5458 521.353 70.5258 511.693 59.1858C499.643 45.0358 484.573 34.7158 467.003 28.8958C460.983 26.9492 454.726 25.3925 448.233 24.2258C444.273 23.5125 439.84 23.1825 434.933 23.2358C425.02 23.3358 418.783 23.5092 416.223 23.7558C416.137 23.7625 416.053 23.7557 415.973 23.7358L371.413 12.1458C371.384 12.1371 371.358 12.1192 371.339 12.0951C371.32 12.071 371.309 12.0419 371.308 12.0123C371.307 11.9827 371.316 11.9543 371.333 11.9315C371.35 11.9086 371.375 11.8926 371.403 11.8858L375.083 10.7158C375.09 10.7151 375.096 10.7127 375.101 10.7089C375.107 10.7051 375.111 10.6999 375.114 10.694C375.117 10.688 375.119 10.6814 375.118 10.6747C375.118 10.6681 375.116 10.6616 375.113 10.6558C375.113 10.6425 375.116 10.6292 375.123 10.6158C375.127 10.6077 375.128 10.5987 375.126 10.5899C375.123 10.581 375.118 10.5726 375.11 10.5655C375.102 10.5583 375.091 10.5528 375.079 10.5493C375.068 10.5459 375.055 10.5447 375.043 10.5458C373.676 10.7792 372.296 10.9692 370.903 11.1158C376.89 9.2625 382.95 7.70916 389.083 6.45583C402.123 3.79583 415.266 1.93917 428.513 0.885837C442.666 -0.247496 456.46 0.255832 469.893 2.39583C498.463 6.94583 517.323 29.6858 527.453 55.1258C533.433 70.1458 538.356 85.5725 542.223 101.406Z" fill="#FFBA7A"/>
<path d="M12.4331 95.2458C12.5597 93.4591 12.9497 91.2925 13.6031 88.7458C17.7964 72.3791 23.3364 57.2625 30.2231 43.3958C31.8364 40.1491 34.9131 35.5325 39.4531 29.5458C49.8831 15.7658 64.0031 6.3458 81.3531 3.3858C91.5131 1.6458 101.06 0.895799 109.993 1.1358C110.288 1.14211 110.568 1.26427 110.773 1.4758C116.7 7.44246 120.713 14.4191 122.813 22.4058C122.828 22.4564 122.831 22.5097 122.822 22.5619C122.814 22.6141 122.793 22.6638 122.763 22.7077C122.732 22.7516 122.692 22.7885 122.646 22.8158C122.599 22.8431 122.547 22.8602 122.493 22.8658C120.44 23.0458 118.086 23.1158 115.433 23.0758C110.943 23.0058 104.063 24.2158 100.633 24.7558C81.9197 27.6891 65.5364 34.9691 51.4831 46.5958C46.1764 50.9891 40.5531 56.8291 34.6131 64.1158C25.7131 75.0358 19.3031 84.6458 12.6931 95.3258C12.677 95.3527 12.6524 95.3735 12.6231 95.3848C12.5938 95.396 12.5616 95.3971 12.5316 95.3879C12.5017 95.3787 12.4757 95.3597 12.4578 95.3339C12.4399 95.3081 12.4312 95.2771 12.4331 95.2458Z" fill="#8BB2D8"/>
<path d="M274.773 5.22577L274.893 63.6858L274.523 59.0658C274.519 59.0045 274.5 58.9451 274.469 58.892C274.438 58.839 274.396 58.7938 274.344 58.7599C274.293 58.7261 274.235 58.7045 274.174 58.6968C274.113 58.6892 274.051 58.6957 273.993 58.7158C268.393 60.6091 262.596 61.5158 256.603 61.4358C256.457 61.433 256.314 61.3964 256.183 61.3288C256.053 61.2611 255.94 61.1643 255.853 61.0458C249.3 52.0658 241.483 44.3458 232.403 37.8858C225.323 32.8458 215.383 27.9758 206.803 23.3358C205.356 22.5558 203.896 21.2858 202.423 19.5258C202.516 19.1324 202.513 18.7958 202.413 18.5158C202.813 18.4358 203.18 18.3324 203.513 18.2058C226.546 9.4191 250.3 5.09243 274.773 5.22577Z" fill="#8BB2D8"/>
<path d="M303.923 7.13584C307.61 8.59584 311.28 9.53917 314.933 9.96584C315.551 10.039 316.158 10.1764 316.743 10.3758C319.21 11.2158 322.266 12.0292 325.913 12.8158C332.566 14.2492 339.38 16.5358 346.353 19.6758L352.383 23.7658C346.903 25.4992 341.33 26.6825 335.663 27.3158C335.36 27.3487 335.073 27.4479 334.823 27.6058C327.47 32.2192 322.45 35.4625 319.763 37.3358C318.45 38.2492 315.173 40.9158 309.933 45.3358C309.691 45.5389 309.398 45.6767 309.083 45.7358C304.633 46.6058 300.773 48.9358 296.093 49.2958C295.192 49.3621 294.308 49.5714 293.473 49.9158C290.793 51.0225 286.986 52.6558 282.053 54.8158C276.873 57.0758 276.613 62.4458 276.523 67.3458C276.223 82.9458 275.963 97.8125 275.743 111.946C275.69 115.193 275.43 119.469 274.963 124.776L274.893 63.6858L274.773 5.22584C285.06 4.9725 294.776 5.60917 303.923 7.13584Z" fill="#FFBA7A"/>
<path d="M370.903 11.1159C372.296 10.9692 373.676 10.7792 375.043 10.5459C375.055 10.5447 375.068 10.5459 375.079 10.5493C375.091 10.5528 375.102 10.5584 375.11 10.5655C375.118 10.5726 375.123 10.581 375.126 10.5899C375.128 10.5987 375.127 10.6077 375.123 10.6159C375.116 10.6292 375.113 10.6425 375.113 10.6559C375.116 10.6616 375.118 10.6681 375.118 10.6748C375.119 10.6814 375.117 10.688 375.114 10.694C375.111 10.7 375.107 10.7051 375.101 10.7089C375.096 10.7127 375.09 10.7151 375.083 10.7159L371.403 11.8859C371.375 11.8926 371.35 11.9086 371.333 11.9315C371.316 11.9543 371.307 11.9827 371.308 12.0123C371.309 12.0419 371.32 12.071 371.339 12.0951C371.358 12.1193 371.384 12.1371 371.413 12.1459L415.973 23.7359C416.053 23.7557 416.137 23.7625 416.223 23.7559C418.783 23.5092 425.02 23.3359 434.933 23.2359C439.84 23.1825 444.273 23.5125 448.233 24.2259C454.726 25.3925 460.983 26.9492 467.003 28.8959C470.056 37.5892 472.003 46.4025 472.843 55.3359C451.733 44.3559 425.493 43.1059 402.663 48.0259C396.01 49.4659 390.1 51.3625 384.933 53.7159C385.306 51.1759 384.45 48.5259 382.363 45.7659C373.43 33.9592 362.58 25.3125 349.813 19.8259C349.546 19.7125 349.41 19.5125 349.403 19.2259C349.396 18.9125 349.336 18.7559 349.223 18.7559C348.176 18.7359 347.293 18.6825 346.573 18.5959C346.487 18.5853 346.401 18.5987 346.322 18.6348C346.243 18.6709 346.175 18.7284 346.124 18.8018C346.073 18.8752 346.04 18.962 346.029 19.0538C346.019 19.1456 346.03 19.2393 346.063 19.3259C346.103 19.4459 346.2 19.5625 346.353 19.6759C339.38 16.5359 332.566 14.2492 325.913 12.8159C322.266 12.0292 319.21 11.2159 316.743 10.3759C316.158 10.1764 315.551 10.039 314.933 9.96587C311.28 9.5392 307.61 8.59586 303.923 7.13586C314.643 8.63586 324.86 10.9325 334.573 14.0259C338.18 15.1725 341.433 16.4559 344.333 17.8759C345.463 18.4344 346.762 18.5382 347.963 18.1659L370.903 11.1159Z" fill="#FFA85F"/>
<path d="M384.933 53.7158L379.903 56.9658L377.653 55.9558C377.316 55.8069 377.038 55.5501 376.863 55.2258C371.99 46.4391 366.276 38.2458 359.723 30.6458C357.503 28.0725 355.056 25.7791 352.383 23.7658L346.353 19.6758C346.2 19.5625 346.103 19.4458 346.063 19.3258C346.03 19.2392 346.019 19.1455 346.029 19.0537C346.04 18.9619 346.073 18.8751 346.124 18.8017C346.175 18.7283 346.243 18.6708 346.322 18.6347C346.401 18.5986 346.487 18.5852 346.573 18.5958C347.293 18.6825 348.176 18.7358 349.223 18.7558C349.336 18.7558 349.396 18.9125 349.403 19.2258C349.41 19.5125 349.546 19.7125 349.813 19.8258C362.58 25.3125 373.43 33.9591 382.363 45.7658C384.45 48.5258 385.306 51.1758 384.933 53.7158Z" fill="#FE974B"/>
<path d="M379.903 56.9659C377.77 58.7125 375.68 60.4759 373.633 62.2559C365.193 69.5825 360.86 78.9059 360.633 90.2259C360.6 91.8992 360.596 93.5792 360.623 95.2659C354.616 93.1125 348.75 93.7559 343.023 97.1959C327.203 106.696 313.333 121.536 301.113 132.596C294.353 138.716 286.283 144.906 276.903 151.166C276.774 151.252 276.667 151.37 276.594 151.51C276.521 151.65 276.483 151.806 276.483 151.966L276.363 270.016C275.69 271.629 275.663 273.489 276.283 275.596L276.413 299.436C276.253 299.649 275.8 299.816 275.053 299.936L274.843 152.936L274.963 124.776C275.43 119.469 275.69 115.193 275.743 111.946C275.963 97.8125 276.223 82.9459 276.523 67.3459C276.613 62.4459 276.873 57.0759 282.053 54.8159C286.986 52.6559 290.793 51.0225 293.473 49.9159C294.308 49.5715 295.192 49.3622 296.093 49.2959C300.773 48.9359 304.633 46.6059 309.083 45.7359C309.398 45.6767 309.691 45.539 309.933 45.3359C315.173 40.9159 318.45 38.2492 319.763 37.3359C322.45 35.4625 327.47 32.2192 334.823 27.6059C335.073 27.448 335.36 27.3488 335.663 27.3159C341.33 26.6825 346.903 25.4992 352.383 23.7659C355.056 25.7792 357.503 28.0725 359.723 30.6459C366.276 38.2459 371.99 46.4392 376.863 55.2259C377.038 55.5501 377.316 55.807 377.653 55.9559L379.903 56.9659Z" fill="#FFA85F"/>
<path d="M542.223 101.406C542.61 102.426 542.703 102.969 542.503 103.036C541.983 104.956 542.08 107.016 542.793 109.216C543.566 111.603 543.97 112.866 544.003 113.006C546.41 122.699 548.193 131.609 549.353 139.736C549.38 139.949 549.343 140.109 549.243 140.216C549.197 140.263 549.14 140.298 549.077 140.319C549.015 140.34 548.948 140.345 548.883 140.336C548.817 140.326 548.755 140.301 548.702 140.263C548.648 140.225 548.604 140.174 548.573 140.116C536.3 118.209 521.71 98.2225 504.803 80.1559C495.41 69.9692 484.756 61.6959 472.843 55.3359C472.003 46.4025 470.056 37.5892 467.003 28.8959C484.573 34.7159 499.643 45.0359 511.693 59.1859C521.353 70.5259 530.076 82.5459 537.863 95.2459C538.049 95.5578 538.19 95.8944 538.283 96.2459C538.976 98.9459 540.29 100.666 542.223 101.406Z" fill="#FE974B"/>
<path d="M171.693 58.0159L167.823 75.1759C164.063 86.6859 160.653 97.9859 159.743 109.216C159.396 108.709 158.956 108.363 158.423 108.176C158.65 105.443 158.926 102.706 159.253 99.9659C159.72 96.1326 159.646 93.4259 159.033 91.8459C157.94 89.0059 155.65 86.5726 152.163 84.5459C148.096 81.2792 143.48 78.4525 138.313 76.0659L131.033 47.4459C130.996 47.3021 130.914 47.1744 130.801 47.0823C130.687 46.9902 130.547 46.9388 130.403 46.9359C122.423 46.6626 114.446 46.8825 106.473 47.5959C105.666 47.6692 103.936 47.5692 101.283 47.2959C118.583 44.1426 135.7 44.5292 152.633 48.4559C155.413 49.0959 158.763 50.2459 162.683 51.9059C165.956 53.2925 168.96 55.3292 171.693 58.0159Z" fill="#192956"/>
<path d="M472.843 55.3359C484.756 61.6959 495.41 69.9692 504.803 80.1558C502.276 79.3025 498.666 77.5225 493.973 74.8159C473.453 62.9859 444.763 64.9058 422.833 72.3758C413.123 75.6758 405.363 80.2758 397.343 85.8158C397.167 85.9361 397.043 86.1171 396.993 86.324C396.943 86.5308 396.971 86.7488 397.073 86.9359C417.773 124.486 427.573 166.086 438.153 207.916C440.813 218.456 444.683 228.616 449.763 238.396C449.914 238.678 449.993 238.991 449.993 239.306L450.003 242.566C439.836 249.886 429.036 256.113 417.603 261.246C412.63 263.486 407.71 264.163 402.843 263.276C393.443 261.556 385.143 254.116 380.393 245.646C377.846 241.106 376.903 235.949 377.563 230.176C381.443 196.276 389.353 162.326 392.263 129.766C392.623 125.726 393.023 121.246 390.563 118.206C390.756 112.313 390.373 106.509 389.413 100.796C388.063 92.7559 384.613 83.8859 382.293 75.4759C382.277 75.4184 382.247 75.3659 382.206 75.3232C382.164 75.2806 382.112 75.2493 382.055 75.2323C381.998 75.2153 381.938 75.2131 381.88 75.226C381.821 75.2388 381.768 75.2663 381.723 75.3059C378.043 78.4192 374.706 81.2459 371.713 83.7859C366.573 88.1459 364.043 93.7458 361.523 100.516L360.623 95.2658C360.596 93.5792 360.6 91.8992 360.633 90.2259C360.86 78.9059 365.193 69.5825 373.633 62.2559C375.68 60.4759 377.77 58.7125 379.903 56.9659L384.933 53.7159C390.1 51.3625 396.01 49.4659 402.663 48.0259C425.493 43.1059 451.733 44.3559 472.843 55.3359Z" fill="#E65A27"/>
<path d="M138.313 76.0658C130.213 72.8258 124.163 70.7192 120.163 69.7458C102.183 65.3458 84.8097 65.5225 68.043 70.2758C60.9297 72.2892 53.2964 75.7158 45.143 80.5558C60.833 63.7658 78.263 51.4358 101.283 47.2958C103.936 47.5692 105.666 47.6692 106.473 47.5958C114.446 46.8825 122.423 46.6625 130.403 46.9358C130.547 46.9388 130.687 46.9902 130.801 47.0823C130.914 47.1744 130.996 47.3021 131.033 47.4458L138.313 76.0658Z" fill="#204073"/>
<path d="M188.883 97.5959C185.63 90.0959 181.213 84.4759 175.633 80.7359C171.913 78.2425 169.31 76.3892 167.823 75.1759L171.693 58.0159C185.153 67.3759 190.883 80.5692 188.883 97.5959Z" fill="#355D93"/>
<path d="M504.803 80.1559C521.71 98.2225 536.3 118.209 548.573 140.116C548.604 140.174 548.648 140.225 548.702 140.263C548.755 140.301 548.817 140.326 548.883 140.336C548.948 140.345 549.015 140.34 549.077 140.319C549.14 140.298 549.197 140.263 549.243 140.216C549.343 140.109 549.38 139.949 549.353 139.736C548.193 131.609 546.41 122.699 544.003 113.006C543.97 112.866 543.566 111.603 542.793 109.216C542.08 107.016 541.983 104.956 542.503 103.036C545.063 111.643 547.13 120.073 548.703 128.326C549.743 133.759 550.376 138.976 550.603 143.976C550.873 150.206 544.663 158.516 540.513 163.346C534.173 170.713 527.836 177.766 521.503 184.506C499.503 206.206 475.67 225.559 450.003 242.566L449.993 239.306C449.993 238.991 449.914 238.678 449.763 238.396C444.683 228.616 440.813 218.456 438.153 207.916C427.573 166.086 417.773 124.486 397.073 86.9359C396.971 86.7489 396.943 86.5309 396.993 86.324C397.043 86.1171 397.167 85.9361 397.343 85.8159C405.363 80.2759 413.123 75.6759 422.833 72.3759C444.763 64.9059 473.453 62.9859 493.973 74.8159C498.666 77.5225 502.276 79.3025 504.803 80.1559Z" fill="#EF7A35"/>
<path d="M138.313 76.0658C143.48 78.4525 148.096 81.2792 152.163 84.5459C152.496 84.8459 152.693 85.2058 152.753 85.6258C152.779 85.8286 152.748 86.0332 152.663 86.2159C145.456 101.276 139.523 116.023 134.863 130.456C134.07 132.916 132.323 138.593 129.623 147.486C126.773 156.896 124.013 167.556 120.943 177.536C112.456 166.496 106.016 158.536 101.623 153.656C87.3831 137.829 78.3597 127.496 74.5531 122.656C64.0531 109.306 54.2331 95.6459 42.0631 83.6859L45.1431 80.5559C53.2964 75.7159 60.9297 72.2892 68.043 70.2759C84.8097 65.5225 102.183 65.3459 120.163 69.7459C124.163 70.7192 130.213 72.8258 138.313 76.0658Z" fill="#2A5087"/>
<path d="M390.563 118.206C389.673 127.996 386.163 137.516 383.773 145.216C380.633 155.376 376.393 164.636 371.343 173.676C365.536 184.069 360.72 192.539 356.893 199.086C356.855 199.147 356.8 199.195 356.734 199.225C356.669 199.255 356.596 199.265 356.525 199.254C356.454 199.244 356.388 199.213 356.334 199.165C356.281 199.117 356.242 199.055 356.223 198.986C354.11 190.306 352.646 181.953 351.833 173.926C351.806 173.647 351.813 173.368 351.853 173.096C352.273 170.449 352.15 168.096 351.483 166.036C351.441 165.9 351.438 165.755 351.473 165.618C351.508 165.48 351.581 165.355 351.683 165.256C352.283 164.696 353.956 163.689 356.703 162.236C358.516 161.276 360.093 160.179 361.433 158.946C368.666 152.312 371.54 143.689 370.053 133.076C369.32 128.329 368.253 123.539 366.853 118.706C365.08 112.572 363.303 106.509 361.523 100.516C364.043 93.7458 366.573 88.1458 371.713 83.7858C374.706 81.2458 378.043 78.4192 381.723 75.3058C381.768 75.2663 381.821 75.2388 381.88 75.2259C381.938 75.2131 381.998 75.2152 382.055 75.2322C382.112 75.2493 382.164 75.2806 382.206 75.3232C382.247 75.3658 382.277 75.4184 382.293 75.4758C384.613 83.8858 388.063 92.7558 389.413 100.796C390.373 106.509 390.756 112.312 390.563 118.206Z" fill="#EF7A35"/>
<path d="M188.883 97.5958C188.75 100.376 188.043 103.419 186.763 106.726C186.816 106.326 186.74 106.032 186.533 105.846C186.492 105.807 186.442 105.779 186.388 105.762C186.334 105.746 186.277 105.742 186.22 105.75C186.164 105.759 186.11 105.78 186.062 105.812C186.014 105.844 185.973 105.886 185.943 105.936C183.143 110.496 179.023 114.906 176.493 120.316C173.233 127.282 170.58 133.379 168.533 138.606C168.478 138.746 168.392 138.872 168.283 138.976C168.173 139.079 168.043 139.157 167.9 139.204C167.758 139.251 167.607 139.265 167.459 139.247C167.311 139.228 167.169 139.176 167.043 139.096L163.733 136.986C162.16 131.019 161.046 126.266 160.393 122.726C159.626 118.586 159.41 114.082 159.743 109.216C160.653 97.9858 164.063 86.6858 167.823 75.1758C169.31 76.3891 171.913 78.2424 175.633 80.7358C181.213 84.4758 185.63 90.0958 188.883 97.5958Z" fill="#4670A5"/>
<path d="M120.943 177.536C117.396 190.896 113.523 204.176 109.323 217.376C107.563 222.909 105.443 228.302 102.963 233.556C101.69 236.242 100.373 238.952 99.013 241.686C78.8263 228.352 59.9396 213.622 42.353 197.496C36.013 191.682 32.3396 188.249 31.333 187.196C31.0478 186.917 30.8053 186.601 30.613 186.256L29.133 183.586C29.1065 183.539 29.0762 183.499 29.043 183.466L20.313 174.286C20.2627 174.234 20.2 174.196 20.1308 174.176C20.0616 174.155 19.9883 174.153 19.9179 174.169C19.8476 174.185 19.7826 174.219 19.7292 174.267C19.6757 174.316 19.6357 174.377 19.613 174.446C19.6063 174.452 19.5863 174.582 19.553 174.836C14.853 170.116 9.97964 164.242 4.93297 157.216C1.47964 152.409 0.0929861 147.252 0.772986 141.746C2.42632 128.339 5.13298 115.052 8.89298 101.886C9.57298 103.012 9.62632 104.426 9.05299 106.126C8.49299 107.772 8.20297 108.629 8.18297 108.696C5.55631 118.716 3.49299 129.346 1.99299 140.586C1.98424 140.65 1.9985 140.715 2.03315 140.77C2.06779 140.826 2.12047 140.867 2.18145 140.886C2.24243 140.906 2.30757 140.902 2.36484 140.877C2.42211 140.851 2.46764 140.804 2.49299 140.746C4.53965 136.612 6.28631 133.319 7.73298 130.866C17.6596 114.019 29.103 98.2925 42.063 83.6858C54.233 95.6458 64.053 109.306 74.553 122.656C78.3597 127.496 87.383 137.829 101.623 153.656C106.016 158.536 112.456 166.496 120.943 177.536Z" fill="#355D93"/>
<path d="M158.423 108.176C157.456 116.609 157.09 123.436 157.323 128.656C157.616 135.056 158.683 144.459 160.523 156.866C166.05 194.112 169.576 218.409 171.103 229.756C171.77 234.729 170.8 239.482 168.193 244.016C161.903 254.956 151.213 266.896 136.913 262.436C134.473 261.669 132.25 260.806 130.243 259.846C119.19 254.552 108.78 248.499 99.013 241.686C100.373 238.952 101.69 236.242 102.963 233.556C105.443 228.302 107.563 222.909 109.323 217.376C113.523 204.176 117.396 190.896 120.943 177.536C124.013 167.556 126.773 156.896 129.623 147.486C132.323 138.592 134.07 132.916 134.863 130.456C139.523 116.022 145.456 101.276 152.663 86.2158C152.748 86.0331 152.779 85.8285 152.753 85.6258C152.693 85.2058 152.496 84.8458 152.163 84.5458C155.65 86.5724 157.94 89.0058 159.033 91.8458C159.646 93.4258 159.72 96.1324 159.253 99.9658C158.926 102.706 158.65 105.442 158.423 108.176Z" fill="#204073"/>
<path d="M360.623 95.2658L361.523 100.516C363.303 106.509 365.08 112.572 366.853 118.706C368.253 123.539 369.32 128.329 370.053 133.076C365.9 136.049 361.963 139.029 358.243 142.016C355.423 144.276 353.973 146.206 352.493 149.336C350.1 154.402 348.176 159.049 346.723 163.276C344.69 169.189 341.236 180.656 336.363 197.676C334.456 204.336 332.486 212.599 330.453 222.466C326.16 243.332 322.776 264.449 320.303 285.816C313.65 282.809 307.046 282.766 300.493 285.686C292.506 289.246 285.14 293.912 278.393 299.686C277.98 299.439 277.32 299.356 276.413 299.436L276.283 275.596C281.443 275.209 286.706 275.539 292.073 276.586C296.46 277.432 300.453 278.382 304.053 279.436C304.105 279.454 304.162 279.453 304.213 279.431C304.264 279.41 304.305 279.369 304.328 279.319C304.351 279.269 304.353 279.211 304.336 279.159C304.318 279.106 304.282 279.062 304.233 279.036C296.113 273.566 287.193 270.886 276.363 270.016L276.483 151.966C276.483 151.806 276.521 151.649 276.594 151.51C276.667 151.37 276.774 151.252 276.903 151.166C286.283 144.906 294.353 138.716 301.113 132.596C313.333 121.536 327.203 106.696 343.023 97.1958C348.75 93.7558 354.616 93.1125 360.623 95.2658Z" fill="#FE974B"/>
<path d="M186.763 106.726C184.063 115.176 181.533 122.626 180.673 132.236C180.647 132.563 180.713 132.889 180.863 133.176L181.313 133.996C181.053 133.889 180.833 133.883 180.653 133.976C180.493 134.063 180.396 134.249 180.363 134.536C178.87 145.969 182.626 154.842 191.633 161.156C193.363 162.366 196.053 163.576 198.203 164.846C198.463 173.439 197.56 181.939 195.493 190.346C194.82 193.086 194.02 195.893 193.093 198.766C188.206 190.013 183.436 181.452 178.783 173.086C176.413 168.826 174.383 164.296 172.253 159.846C170 155.159 167.16 147.539 163.733 136.986L167.043 139.096C167.169 139.177 167.311 139.228 167.459 139.247C167.607 139.266 167.758 139.251 167.9 139.204C168.043 139.157 168.173 139.079 168.283 138.976C168.392 138.872 168.478 138.746 168.533 138.606C170.58 133.379 173.233 127.283 176.493 120.316C179.023 114.906 183.143 110.496 185.943 105.936C185.973 105.886 186.014 105.844 186.062 105.812C186.11 105.78 186.164 105.759 186.22 105.75C186.277 105.742 186.334 105.746 186.388 105.762C186.442 105.779 186.492 105.807 186.533 105.846C186.74 106.033 186.816 106.326 186.763 106.726Z" fill="#355D93"/>
<path d="M159.743 109.216C159.41 114.082 159.626 118.586 160.393 122.726C161.046 126.266 162.16 131.019 163.733 136.986C167.16 147.539 170 155.159 172.253 159.846C174.383 164.296 176.413 168.826 178.783 173.086C183.436 181.452 188.206 190.012 193.093 198.766L196.253 203.806C195.54 205.159 195.276 206.412 195.463 207.566C191.65 224.152 188.966 240.782 187.413 257.456C187.406 257.539 187.416 257.622 187.443 257.701C187.469 257.78 187.512 257.852 187.567 257.913C187.623 257.974 187.69 258.023 187.765 258.056C187.84 258.089 187.921 258.106 188.003 258.106H193.903C194.082 258.105 194.258 258.153 194.413 258.245C194.568 258.336 194.696 258.468 194.783 258.626L195.013 259.026L194.713 263.066L192.263 277.236C190.436 287.176 188.103 296.979 185.263 306.646C179.843 325.126 171.743 342.349 160.963 358.316C150.363 374.006 138.373 386.166 121.963 394.556C121.907 394.587 121.863 394.636 121.837 394.694C121.811 394.752 121.804 394.817 121.817 394.88C121.831 394.942 121.864 394.999 121.911 395.041C121.959 395.084 122.019 395.11 122.083 395.116L130.793 395.626C134.013 396.506 137.79 396.252 142.123 394.866C154.976 390.759 165.94 384.836 175.013 377.096C177.106 375.316 181.733 371.262 188.893 364.936C189.139 364.716 189.364 364.472 189.563 364.206C191.833 361.086 194.413 358.716 196.853 355.526C207.18 342.026 216.043 327.789 223.443 312.816C225.603 308.449 227.403 304.406 228.843 300.686C229.196 299.766 229.92 298.282 231.013 296.236L235.783 335.066C237.956 361.326 239.586 387.626 240.673 413.966C240.86 418.566 241.09 425.069 241.363 433.476C241.51 437.962 242.44 443.662 244.153 450.576C245.673 456.696 247.756 462.046 250.403 466.626C255.783 475.952 263.26 483.662 272.833 489.756C273.266 490.036 273.71 490.246 274.163 490.386L275.103 490.906C276.683 491.939 279.04 493.032 282.173 494.186C307.633 503.566 336.183 496.416 354.703 476.486C354.73 476.46 354.764 476.443 354.801 476.437C354.837 476.431 354.875 476.435 354.909 476.45C354.943 476.465 354.972 476.49 354.992 476.521C355.013 476.552 355.023 476.589 355.023 476.626C354.516 486.426 353.046 496.132 350.613 505.746C350.273 504.826 350.096 503.889 350.083 502.936C351.956 495.469 353.04 488.076 353.333 480.756C353.337 480.593 353.293 480.433 353.205 480.295C353.118 480.158 352.992 480.05 352.843 479.984C352.694 479.919 352.529 479.899 352.368 479.928C352.208 479.957 352.06 480.033 351.943 480.146C338.63 493.259 322.796 499.662 304.443 499.356C294.523 499.196 285.663 496.876 276.403 493.376C276.269 493.326 276.125 493.309 275.982 493.327C275.84 493.345 275.705 493.397 275.587 493.478C275.469 493.56 275.373 493.668 275.306 493.795C275.239 493.922 275.204 494.063 275.203 494.206V514.856C275.203 514.952 275.18 515.048 275.135 515.133C275.09 515.219 275.025 515.292 274.945 515.346C274.864 515.401 274.772 515.435 274.676 515.445C274.58 515.455 274.483 515.442 274.393 515.406C269.173 513.286 263.873 511.096 259.153 507.836C243.553 497.046 232.823 483.276 226.893 465.376C224.486 458.129 222.976 451.056 222.363 444.156C220.733 426.036 221.153 400.286 219.983 379.116C219.383 368.276 219.003 360.012 218.843 354.326C218.839 354.188 218.79 354.055 218.704 353.947C218.617 353.84 218.498 353.764 218.364 353.731C218.23 353.698 218.088 353.71 217.962 353.765C217.835 353.82 217.73 353.915 217.663 354.036C207.163 372.836 188.733 386.606 170.013 396.636C158.693 402.716 137.763 410.096 125.323 403.076C120.87 400.562 119.813 397.266 122.153 393.186C122.305 392.914 122.501 392.668 122.733 392.456C126.573 389.016 128.86 386.832 129.593 385.906C151.843 357.696 165.493 322.506 171.083 286.916C172.003 281.036 172.23 275.009 171.763 268.836C171.755 268.714 171.713 268.596 171.642 268.496C171.571 268.397 171.474 268.318 171.36 268.27C171.247 268.221 171.122 268.205 170.999 268.222C170.876 268.239 170.76 268.288 170.663 268.366C167.036 271.286 163.253 273.622 159.313 275.376C145.153 281.686 127.863 276.156 114.693 269.946C103.6 264.712 92.7064 258.416 82.013 251.056C74.0264 245.562 67.693 240.999 63.013 237.366C56.1797 232.059 48.9531 225.779 41.3331 218.526C37.7864 215.146 34.0597 211.639 30.1531 208.006C30.6797 204.886 30.3297 202.019 29.103 199.406L29.043 186.446C29.0369 185.297 28.5858 184.19 27.7831 183.356L19.5531 174.836C19.5864 174.582 19.6064 174.452 19.6131 174.446C19.6358 174.377 19.6758 174.316 19.7292 174.267C19.7827 174.219 19.8477 174.185 19.918 174.169C19.9884 174.153 20.0617 174.155 20.1309 174.176C20.2001 174.196 20.2628 174.234 20.3131 174.286L29.043 183.466C29.0762 183.499 29.1065 183.539 29.133 183.586L30.6131 186.256C30.8054 186.601 31.0479 186.917 31.3331 187.196C32.3397 188.249 36.013 191.682 42.353 197.496C59.9397 213.622 78.8264 228.352 99.013 241.686C108.78 248.499 119.19 254.552 130.243 259.846C132.25 260.806 134.473 261.669 136.913 262.436C151.213 266.896 161.903 254.956 168.193 244.016C170.8 239.482 171.77 234.729 171.103 229.756C169.576 218.409 166.05 194.112 160.523 156.866C158.683 144.459 157.616 135.056 157.323 128.656C157.09 123.436 157.456 116.609 158.423 108.176C158.956 108.362 159.396 108.709 159.743 109.216Z" fill="#17224A"/>
<path d="M450.003 242.566C475.67 225.559 499.503 206.206 521.503 184.506C522.07 220.106 522.043 249.846 521.423 273.726C521.023 289.179 518.906 305.256 515.073 321.956C508.713 349.676 497.63 375.166 481.823 398.426C470.003 415.826 456.123 431.436 441.673 446.076C432.013 455.862 421.873 465.036 411.253 473.596C390.806 490.069 369.29 505.039 346.703 518.506C346.59 517.966 346.446 517.626 346.273 517.486L350.613 505.746C353.046 496.133 354.516 486.426 355.023 476.626C355.023 476.589 355.013 476.552 354.992 476.521C354.972 476.49 354.943 476.465 354.909 476.45C354.875 476.435 354.837 476.431 354.801 476.437C354.764 476.443 354.73 476.46 354.703 476.486C336.183 496.416 307.633 503.566 282.173 494.186C279.04 493.033 276.683 491.939 275.103 490.906L275.153 424.186C276.173 425.779 276.736 427.199 276.843 428.446C277.476 435.799 279.406 442.802 282.633 449.456C288.593 461.706 297.413 468.496 310.883 469.996C327.383 471.843 341.27 467.232 352.543 456.166C352.578 456.13 352.623 456.105 352.672 456.093C352.72 456.081 352.772 456.083 352.82 456.098C352.867 456.114 352.91 456.142 352.942 456.181C352.975 456.219 352.996 456.266 353.003 456.316L353.863 460.786C353.868 460.809 353.877 460.832 353.891 460.851C353.905 460.87 353.922 460.886 353.942 460.898C353.963 460.91 353.985 460.916 354.007 460.918C354.03 460.919 354.052 460.915 354.073 460.906H354.083C354.095 460.905 354.106 460.901 354.117 460.895C354.127 460.89 354.136 460.882 354.144 460.873C354.151 460.863 354.157 460.853 354.16 460.841C354.163 460.83 354.164 460.818 354.163 460.806C354.076 458.399 354.066 456.159 354.133 454.086C354.22 451.346 354.023 449.509 353.543 448.576C351.023 443.706 345.923 441.026 340.773 444.096C335.953 446.966 331.993 450.046 327.983 450.446C320.473 451.206 316.823 445.506 315.113 439.206C313.66 433.846 312.683 428.182 312.183 422.216C311.103 409.456 310.8 395.709 311.273 380.976C311.86 362.636 312.943 345.896 314.523 330.756C315.416 322.156 316.883 310.712 318.923 296.426C319.043 295.552 319.183 294.422 319.343 293.036C319.37 292.749 319.426 292.566 319.513 292.486C319.666 292.346 319.846 292.336 320.053 292.456C320.12 292.816 320.24 293.146 320.413 293.446C320.633 294.639 320.953 295.829 321.373 297.016C328.583 317.326 340.303 337.276 353.393 354.716C366.033 371.556 383.173 385.106 403.123 392.256C411.283 395.176 419.746 396.122 428.513 395.096C428.559 395.092 428.603 395.073 428.636 395.041C428.67 395.01 428.691 394.968 428.698 394.921C428.705 394.874 428.697 394.826 428.674 394.784C428.651 394.741 428.616 394.707 428.573 394.686C413.323 387.666 400.033 374.906 390.873 361.496C379.26 344.482 370.683 326.156 365.143 306.516C361.65 294.129 358.936 281.489 357.003 268.596L356.763 267.316L356.003 258.996C356.076 258.636 356.48 258.422 357.213 258.356C359.106 258.196 360.936 258.109 362.703 258.096C362.792 258.096 362.881 258.078 362.963 258.042C363.044 258.005 363.118 257.952 363.178 257.885C363.238 257.818 363.284 257.739 363.313 257.653C363.341 257.567 363.351 257.476 363.343 257.386C361.623 239.772 358.763 222.256 354.763 204.836L345.963 175.626C345.939 175.549 345.892 175.483 345.827 175.436C345.762 175.389 345.684 175.364 345.604 175.365C345.524 175.366 345.447 175.393 345.384 175.442C345.32 175.491 345.274 175.559 345.253 175.636C341.746 188.549 338.823 201.462 336.483 214.376C336.17 216.102 334.076 228.256 330.203 250.836C328.956 258.109 328.193 265.586 327.913 273.266C327.853 275.059 328.076 276.906 328.583 278.806L320.093 290.426C319.846 290.399 319.746 290.169 319.793 289.736C319.953 288.322 320.123 287.016 320.303 285.816C322.776 264.449 326.16 243.332 330.453 222.466C332.486 212.599 334.456 204.336 336.363 197.676C341.236 180.656 344.69 169.189 346.723 163.276C348.176 159.049 350.1 154.402 352.493 149.336C353.973 146.206 355.423 144.276 358.243 142.016C361.963 139.029 365.9 136.049 370.053 133.076C371.54 143.689 368.666 152.312 361.433 158.946C360.093 160.179 358.516 161.276 356.703 162.236C353.956 163.689 352.283 164.696 351.683 165.256C351.581 165.355 351.508 165.48 351.473 165.618C351.438 165.755 351.441 165.9 351.483 166.036C352.15 168.096 352.273 170.449 351.853 173.096C351.813 173.368 351.806 173.647 351.833 173.926C352.646 181.952 354.11 190.306 356.223 198.986C356.242 199.055 356.281 199.117 356.334 199.165C356.388 199.213 356.454 199.244 356.525 199.254C356.596 199.265 356.669 199.255 356.734 199.225C356.8 199.195 356.855 199.147 356.893 199.086C360.72 192.539 365.536 184.069 371.343 173.676C376.393 164.636 380.633 155.376 383.773 145.216C386.163 137.516 389.673 127.996 390.563 118.206C393.023 121.246 392.623 125.726 392.263 129.766C389.353 162.326 381.443 196.276 377.563 230.176C376.903 235.949 377.846 241.106 380.393 245.646C385.143 254.116 393.443 261.556 402.843 263.276C407.71 264.162 412.63 263.486 417.603 261.246C429.036 256.112 439.836 249.886 450.003 242.566Z" fill="#D85125"/>
<path d="M181.313 133.996C184.986 136.649 188.636 139.356 192.263 142.116C196.633 145.446 197.743 148.746 200.333 154.776C202.14 158.976 203.77 163.256 205.223 167.616C210.696 184.083 215.186 200.939 218.693 218.186L226.493 260.236L230.793 292.516C230.533 292.583 230.246 292.576 229.933 292.496C230.166 291.296 229.893 290.129 229.113 288.996C224.953 282.929 220.87 277.599 216.863 273.006C215.403 271.333 212.883 268.799 209.303 265.406C213.103 267.553 216.723 270.829 220.163 275.236L227.093 283.156C227.15 283.224 227.227 283.271 227.313 283.293C227.399 283.314 227.49 283.308 227.572 283.274C227.654 283.241 227.723 283.183 227.77 283.107C227.817 283.032 227.839 282.944 227.833 282.856C227.586 277.209 227.06 271.659 226.253 266.206C223.726 249.146 220.106 230.076 215.393 208.996C211.766 192.769 208.206 179.929 204.713 170.476C203.72 167.789 201.55 165.913 198.203 164.846C196.053 163.576 193.363 162.366 191.633 161.156C182.626 154.843 178.87 145.969 180.363 134.536C180.396 134.249 180.493 134.063 180.653 133.976C180.833 133.883 181.053 133.889 181.313 133.996Z" fill="#17224A"/>
<path d="M274.843 152.936L275.053 299.936L275.003 305.276L275.053 332.276L275.043 336.676L275.153 424.186L275.103 490.906L274.163 490.386C274.05 475.159 273.993 459.936 273.993 444.716C273.993 431.926 273.523 415.796 273.943 401.746C274.273 390.266 273.733 377.886 274.063 365.656C274.068 365.466 273.999 365.283 273.87 365.144C273.741 365.006 273.562 364.924 273.373 364.916C268.626 364.669 263.503 363.766 258.003 362.206C257.939 362.188 257.883 362.149 257.844 362.096C257.804 362.043 257.784 361.978 257.785 361.912C257.786 361.846 257.809 361.782 257.85 361.73C257.891 361.678 257.949 361.642 258.013 361.626C262.793 360.592 267.896 360.182 273.323 360.396C273.405 360.398 273.486 360.385 273.563 360.356C273.639 360.327 273.709 360.283 273.767 360.227C273.826 360.171 273.873 360.104 273.905 360.03C273.937 359.956 273.953 359.876 273.953 359.796V337.726C273.954 337.515 273.876 337.312 273.733 337.154C273.591 336.997 273.395 336.898 273.183 336.876L254.743 335.036C254.667 335.029 254.597 334.995 254.544 334.94C254.492 334.886 254.462 334.813 254.458 334.737C254.454 334.66 254.478 334.584 254.525 334.521C254.571 334.459 254.638 334.414 254.713 334.396C260.806 333.069 267.066 332.386 273.493 332.346C273.613 332.343 273.728 332.294 273.812 332.208C273.896 332.122 273.943 332.006 273.943 331.886L274.133 307.776C274.22 306.456 273.97 305.686 273.383 305.466C273.37 305.459 273.356 305.456 273.343 305.456C265.05 305.696 257.096 306.536 249.483 307.976C249.443 307.983 249.402 307.98 249.364 307.969C249.325 307.957 249.29 307.937 249.261 307.909C249.233 307.881 249.212 307.848 249.2 307.81C249.188 307.773 249.186 307.734 249.193 307.696C249.213 307.556 249.286 307.466 249.413 307.426C249.513 307.386 249.586 307.352 249.633 307.326C257.586 302.612 265.576 300.032 273.603 299.586C273.714 299.578 273.819 299.53 273.895 299.45C273.971 299.37 274.013 299.265 274.013 299.156V276.156C274.013 276.085 273.999 276.015 273.971 275.95C273.943 275.884 273.902 275.826 273.85 275.777C273.799 275.728 273.738 275.691 273.671 275.666C273.605 275.642 273.534 275.632 273.463 275.636C264.17 276.176 255.223 277.589 246.623 279.876C246.559 279.892 246.492 279.884 246.435 279.854C246.377 279.824 246.333 279.773 246.31 279.711C246.287 279.649 246.287 279.58 246.309 279.517C246.332 279.453 246.376 279.4 246.433 279.366C250.306 277.386 254.22 275.562 258.173 273.896C263.203 271.766 268.673 270.846 273.703 270.276C273.866 270.256 274.017 270.178 274.126 270.056C274.234 269.935 274.294 269.778 274.293 269.616L274.223 206.936L274.203 153.746L274.843 152.936Z" fill="#2A5087"/>
<path d="M274.203 153.746L274.848 152.93L274.91 206.499C273.384 210.253 271.126 213.776 269.513 216.196C265.053 222.886 257.503 225.636 249.903 227.156C242.263 228.676 233.28 229.882 222.953 230.776C222.889 230.781 222.826 230.801 222.769 230.832C222.713 230.864 222.664 230.907 222.625 230.959C222.586 231.011 222.559 231.07 222.545 231.134C222.531 231.197 222.53 231.262 222.543 231.326C225.043 243.486 226.706 252.949 227.533 259.716C227.633 260.569 227.286 260.742 226.493 260.236L218.693 218.186C219.506 215.899 219.333 213.336 218.173 210.496C218.073 210.263 218 210.018 217.953 209.766C215.543 197.946 211.853 186.316 209.493 176.886C209.451 176.719 209.473 176.542 209.554 176.39C209.635 176.239 209.771 176.123 209.933 176.066C219.026 172.799 225.556 170.732 229.523 169.866C247.653 165.896 259.703 162.766 274.203 153.746Z" fill="#5683B5"/>
<path d="M220.163 275.236C221.53 276.383 222.09 275.186 221.843 271.646C220.99 259.713 219.536 247.533 217.483 235.106C214.63 217.839 210.62 199.123 205.453 178.956C205.173 177.863 204.853 177.133 204.493 176.766C204.39 176.661 204.26 176.588 204.118 176.554C203.975 176.52 203.826 176.527 203.687 176.574C203.548 176.621 203.425 176.706 203.333 176.82C203.24 176.933 203.181 177.07 203.163 177.216C202.056 186.642 199.753 195.506 196.253 203.806L193.093 198.766C194.02 195.893 194.82 193.086 195.493 190.346C197.56 181.939 198.463 173.439 198.203 164.846C201.55 165.912 203.72 167.789 204.713 170.476C208.206 179.929 211.766 192.769 215.393 208.996C220.106 230.076 223.726 249.146 226.253 266.206C227.06 271.659 227.586 277.209 227.833 282.856C227.839 282.944 227.817 283.032 227.77 283.107C227.723 283.183 227.654 283.241 227.572 283.274C227.49 283.308 227.399 283.314 227.313 283.293C227.227 283.271 227.15 283.224 227.093 283.156L220.163 275.236Z" fill="#192956"/>
<path d="M220.163 275.236C216.723 270.829 213.103 267.553 209.303 265.406L195.893 259.116C195.92 258.836 195.996 258.623 196.123 258.476C196.25 258.329 196.456 258.299 196.743 258.386C200.763 259.526 203.593 261.116 206.783 262.586C206.865 262.625 206.955 262.641 207.045 262.632C207.135 262.624 207.22 262.591 207.293 262.538C207.366 262.484 207.423 262.412 207.458 262.329C207.493 262.246 207.505 262.155 207.493 262.066C205.6 246.693 202.656 231.503 198.663 216.496C198.076 214.283 197.01 211.306 195.463 207.566C195.276 206.413 195.54 205.159 196.253 203.806C199.753 195.506 202.056 186.643 203.163 177.216C203.181 177.07 203.24 176.933 203.333 176.82C203.425 176.706 203.548 176.621 203.687 176.574C203.826 176.527 203.975 176.52 204.118 176.554C204.26 176.588 204.39 176.661 204.493 176.766C204.853 177.133 205.173 177.863 205.453 178.956C210.62 199.123 214.63 217.839 217.483 235.106C219.536 247.533 220.99 259.713 221.843 271.646C222.09 275.186 221.53 276.383 220.163 275.236Z" fill="#204073"/>
<path d="M354.763 204.836C354.023 207.306 353.643 210.036 353.043 212.236C348.296 229.643 344.85 247.319 342.703 265.266C337.33 268.959 332.623 273.472 328.583 278.806C328.076 276.906 327.853 275.059 327.913 273.266C328.193 265.586 328.956 258.109 330.203 250.836C334.076 228.256 336.17 216.102 336.483 214.376C338.823 201.462 341.746 188.549 345.253 175.636C345.274 175.559 345.32 175.491 345.384 175.442C345.447 175.393 345.524 175.366 345.604 175.365C345.684 175.364 345.762 175.389 345.827 175.436C345.892 175.483 345.939 175.549 345.963 175.626L354.763 204.836Z" fill="#E65A27"/>
<path d="M30.1531 208.006C30.3531 214.446 30.3998 222.353 30.2931 231.726C30.2598 234.999 30.2631 245.676 30.3031 263.756C30.3231 272.996 30.5731 280.633 31.0531 286.666C31.7731 295.653 32.6664 303.243 33.7331 309.436C37.3998 330.743 44.0431 351.019 53.6631 370.266C63.1431 389.226 74.3598 406.243 87.3131 421.316C93.8998 428.983 97.5298 433.249 98.2031 434.116C98.7498 434.823 103.686 439.813 113.013 449.086C114.246 450.319 116.676 452.449 120.303 455.476C122.456 457.276 124.643 459.353 126.863 461.706C126.95 461.799 127.043 461.883 127.143 461.956L131.173 464.846C131.504 465.077 131.792 465.369 132.023 465.706C132.963 467.066 134.393 468.313 136.313 469.446C136.346 469.466 136.377 469.486 136.403 469.506L147.483 478.216C147.503 478.236 147.52 478.253 147.533 478.266C148.12 478.986 149.3 479.989 151.073 481.276C169.873 494.863 180.693 502.459 183.533 504.066C184.753 504.753 185.373 505.099 185.393 505.106C185.708 505.211 185.99 505.397 186.213 505.646C187.533 507.106 189.903 508.176 191.663 509.296C203.236 516.643 212.153 522.039 218.413 525.486C220.293 526.519 221.263 527.053 221.323 527.086C232.736 533.766 238.573 537.136 238.833 537.196C239.166 537.283 239.293 537.506 239.213 537.866C239.16 538.086 238.97 538.213 238.643 538.246C212.803 524.506 187.956 509.183 164.103 492.276C133.683 470.716 105.413 445.816 81.7731 416.346C52.2831 379.596 33.9731 336.966 30.0931 289.976C29.3531 281.049 28.9831 271.299 28.9831 260.726C28.9764 240.313 29.0164 219.873 29.1031 199.406C30.3298 202.019 30.6798 204.886 30.1531 208.006Z" fill="#02050A"/>
<path d="M354.763 204.836C358.763 222.256 361.623 239.773 363.343 257.386C363.351 257.476 363.341 257.567 363.313 257.653C363.284 257.739 363.238 257.818 363.178 257.885C363.118 257.952 363.044 258.005 362.963 258.042C362.881 258.078 362.792 258.096 362.703 258.096C360.936 258.109 359.106 258.196 357.213 258.356C356.48 258.423 356.076 258.636 356.003 258.996C351.203 260.242 346.77 262.333 342.703 265.266C344.85 247.319 348.296 229.643 353.043 212.236C353.643 210.036 354.023 207.306 354.763 204.836Z" fill="#EF7A35"/>
<path d="M274.293 269.616L274.91 206.409C273.384 210.162 271.126 213.776 269.513 216.196C265.053 222.886 257.503 225.636 249.903 227.156C242.263 228.676 231.39 229.969 221.064 230.862C221.064 230.62 226.493 260.236 226.493 260.236L230.793 292.516L231.013 296.236L235.783 335.066C240.683 332.546 245.476 329.969 250.163 327.336C259.156 322.289 267.146 315.769 274.133 307.776C274.22 306.456 273.97 305.686 273.383 305.466C273.37 305.459 273.356 305.456 273.343 305.456C265.05 305.696 257.096 306.536 249.483 307.976C249.443 307.983 249.402 307.98 249.364 307.969C249.325 307.957 249.29 307.937 249.261 307.909C249.233 307.882 249.212 307.848 249.2 307.811C249.188 307.773 249.186 307.734 249.193 307.696C249.213 307.556 249.286 307.466 249.413 307.426C249.513 307.386 249.586 307.353 249.633 307.326C257.586 302.613 265.576 300.033 273.603 299.586C273.714 299.578 273.819 299.53 273.895 299.45C273.971 299.37 274.013 299.265 274.013 299.156V276.156C274.013 276.085 273.999 276.015 273.971 275.95C273.943 275.885 273.902 275.826 273.85 275.777C273.799 275.728 273.738 275.691 273.671 275.667C273.605 275.642 273.534 275.632 273.463 275.636C264.17 276.176 255.223 277.589 246.623 279.876C246.559 279.892 246.492 279.885 246.435 279.854C246.377 279.824 246.333 279.773 246.31 279.711C246.287 279.649 246.287 279.58 246.309 279.517C246.332 279.453 246.376 279.4 246.433 279.366C250.306 277.386 254.22 275.563 258.173 273.896C263.203 271.766 268.673 270.846 273.703 270.276C273.866 270.256 274.017 270.178 274.126 270.056C274.234 269.935 274.294 269.778 274.293 269.616Z" fill="#4670A5"/>
<path d="M195.893 259.116C195.773 258.916 195.48 258.886 195.013 259.026L194.783 258.626C194.695 258.468 194.568 258.336 194.413 258.245C194.258 258.153 194.082 258.105 193.903 258.106H188.003C187.921 258.106 187.84 258.089 187.765 258.056C187.69 258.023 187.623 257.974 187.567 257.913C187.512 257.852 187.469 257.78 187.443 257.701C187.416 257.622 187.406 257.539 187.413 257.456C188.966 240.782 191.65 224.152 195.463 207.566C197.01 211.306 198.076 214.282 198.663 216.496C202.656 231.502 205.6 246.692 207.493 262.066C207.505 262.155 207.493 262.246 207.458 262.329C207.423 262.412 207.366 262.484 207.293 262.538C207.22 262.591 207.134 262.624 207.045 262.632C206.955 262.64 206.864 262.625 206.783 262.586C203.593 261.116 200.763 259.526 196.743 258.386C196.456 258.299 196.25 258.329 196.123 258.476C195.996 258.622 195.92 258.836 195.893 259.116Z" fill="#355D93"/>
<path d="M350.083 502.936C350.243 502.096 350.11 501.496 349.683 501.136C349.567 501.041 349.421 500.99 349.272 500.994C349.123 500.997 348.981 501.055 348.873 501.156C344.506 505.109 339.02 508.553 332.413 511.486C319.046 517.406 305.653 519.729 292.233 518.456C286.62 517.923 281.166 517.116 275.873 516.036C275.807 516.023 275.739 516.024 275.674 516.04C275.609 516.056 275.548 516.086 275.496 516.128C275.443 516.17 275.401 516.223 275.371 516.283C275.341 516.343 275.325 516.409 275.323 516.476C275.09 526.276 275.113 535.616 275.393 544.496C275.44 545.963 275.293 548.639 274.953 552.526C274.945 552.616 274.958 552.706 274.989 552.791C275.021 552.875 275.07 552.952 275.135 553.016C275.2 553.08 275.278 553.129 275.364 553.16C275.45 553.191 275.542 553.203 275.633 553.196L280.153 552.826C275.84 553.946 271.646 553.516 267.573 551.536C261.92 548.796 256.263 546.026 250.603 543.226C249.89 542.873 249.363 543.056 249.023 543.776L238.643 538.246C238.97 538.213 239.16 538.086 239.213 537.866C239.293 537.506 239.166 537.282 238.833 537.196C238.573 537.136 232.736 533.766 221.323 527.086C221.263 527.053 220.293 526.519 218.413 525.486C212.153 522.039 203.236 516.643 191.663 509.296C189.903 508.176 187.533 507.106 186.213 505.646C185.99 505.397 185.708 505.211 185.393 505.106C185.373 505.099 184.753 504.753 183.533 504.066C180.693 502.459 169.873 494.863 151.073 481.276C149.3 479.989 148.12 478.986 147.533 478.266C147.52 478.253 147.503 478.236 147.483 478.216L136.403 469.506C136.376 469.486 136.346 469.466 136.313 469.446C134.393 468.312 132.963 467.066 132.023 465.706C131.792 465.369 131.504 465.077 131.173 464.846L127.143 461.956C127.043 461.883 126.95 461.799 126.863 461.706C124.643 459.353 122.456 457.276 120.303 455.476C116.676 452.449 114.246 450.319 113.013 449.086C103.686 439.813 98.7497 434.823 98.203 434.116C97.5297 433.249 93.8997 428.983 87.313 421.316C74.3597 406.243 63.143 389.226 53.663 370.266C44.043 351.019 37.3997 330.743 33.733 309.436C32.6664 303.243 31.773 295.653 31.053 286.666C30.573 280.633 30.323 272.996 30.303 263.756C30.263 245.676 30.2597 234.999 30.293 231.726C30.3997 222.353 30.353 214.446 30.153 208.006C34.0597 211.639 37.7864 215.146 41.333 218.526C48.953 225.779 56.1797 232.059 63.013 237.366C67.693 240.999 74.0264 245.563 82.013 251.056C92.7064 258.416 103.6 264.713 114.693 269.946C127.863 276.156 145.153 281.686 159.313 275.376C163.253 273.623 167.036 271.286 170.663 268.366C170.76 268.289 170.876 268.239 170.999 268.222C171.122 268.205 171.247 268.222 171.36 268.27C171.474 268.318 171.571 268.397 171.642 268.496C171.713 268.596 171.755 268.714 171.763 268.836C172.23 275.009 172.003 281.036 171.083 286.916C165.493 322.506 151.843 357.696 129.593 385.906C128.86 386.833 126.573 389.016 122.733 392.456C122.501 392.668 122.305 392.914 122.153 393.186C119.813 397.266 120.87 400.563 125.323 403.076C137.763 410.096 158.693 402.716 170.013 396.636C188.733 386.606 207.163 372.836 217.663 354.036C217.73 353.915 217.835 353.82 217.962 353.765C218.088 353.71 218.23 353.698 218.364 353.731C218.498 353.764 218.617 353.84 218.704 353.947C218.79 354.055 218.839 354.188 218.843 354.326C219.003 360.013 219.383 368.276 219.983 379.116C221.153 400.286 220.733 426.036 222.363 444.156C222.976 451.056 224.486 458.129 226.893 465.376C232.823 483.276 243.553 497.046 259.153 507.836C263.873 511.096 269.173 513.286 274.393 515.406C274.483 515.442 274.58 515.455 274.676 515.445C274.772 515.435 274.864 515.401 274.944 515.347C275.024 515.292 275.09 515.219 275.135 515.133C275.18 515.048 275.203 514.953 275.203 514.856V494.206C275.204 494.063 275.239 493.922 275.306 493.795C275.373 493.668 275.469 493.56 275.587 493.478C275.705 493.397 275.84 493.345 275.982 493.327C276.124 493.309 276.269 493.326 276.403 493.376C285.663 496.876 294.523 499.196 304.443 499.356C322.796 499.663 338.63 493.259 351.943 480.146C352.06 480.033 352.208 479.957 352.368 479.928C352.529 479.899 352.694 479.919 352.843 479.984C352.992 480.05 353.118 480.158 353.205 480.295C353.293 480.433 353.337 480.593 353.333 480.756C353.04 488.076 351.956 495.469 350.083 502.936Z" fill="#192956"/>
<path d="M195.893 259.116L209.303 265.406C212.883 268.799 215.403 271.332 216.863 273.006C220.87 277.599 224.953 282.929 229.113 288.996C229.893 290.129 230.166 291.296 229.933 292.496L227.813 299.176C226.426 300.042 225.333 301.946 224.533 304.886C221.8 302.959 218.916 301.609 215.883 300.836C215.805 300.815 215.732 300.779 215.669 300.729C215.606 300.679 215.554 300.617 215.516 300.546C215.478 300.476 215.456 300.398 215.45 300.319C215.445 300.24 215.456 300.16 215.483 300.086C216.07 298.432 216.62 296.642 217.133 294.716C220.793 281.046 208.103 270.416 195.993 268.166C195.825 268.134 195.666 268.067 195.525 267.969C195.384 267.872 195.265 267.746 195.176 267.601C195.086 267.455 195.028 267.292 195.006 267.122C194.983 266.953 194.995 266.78 195.043 266.616C195.503 265.009 195.393 263.826 194.713 263.066L195.013 259.026C195.48 258.886 195.773 258.916 195.893 259.116Z" fill="#8BB2D8"/>
<path d="M356.003 258.996L356.763 267.316C354.236 268.709 351.69 270.046 349.123 271.326C343.43 274.139 338.84 278.173 335.353 283.426C331.263 289.576 333.113 294.896 334.923 301.386C334.962 301.532 334.95 301.688 334.888 301.826C334.826 301.965 334.718 302.078 334.583 302.146L325.853 306.476L321.743 296.156C321.683 296.01 321.646 295.855 321.633 295.696C321.553 294.616 321.146 293.866 320.413 293.446C320.24 293.146 320.12 292.816 320.053 292.456L320.093 290.426L328.583 278.806C332.623 273.473 337.33 268.959 342.703 265.266C346.77 262.333 351.203 260.243 356.003 258.996Z" fill="#8BB2D8"/>
<path d="M194.713 263.066C195.393 263.826 195.503 265.009 195.043 266.616C194.995 266.78 194.983 266.953 195.006 267.122C195.028 267.292 195.086 267.455 195.176 267.601C195.265 267.746 195.384 267.872 195.525 267.969C195.666 268.067 195.825 268.134 195.993 268.166C208.103 270.416 220.793 281.046 217.133 294.716C216.62 296.642 216.07 298.432 215.483 300.086C215.456 300.16 215.445 300.24 215.45 300.319C215.456 300.398 215.478 300.476 215.516 300.546C215.554 300.617 215.606 300.679 215.669 300.729C215.732 300.779 215.805 300.815 215.883 300.836C218.916 301.609 221.8 302.959 224.533 304.886C219.133 316.526 212.486 328.129 204.593 339.696C200.7 345.402 197.57 349.826 195.203 352.966C193.976 354.586 192.866 355.869 191.873 356.816C190.3 358.302 189.153 359.539 188.433 360.526C185.786 364.139 183.07 366.566 180.283 367.806C179.963 367.95 179.689 368.182 179.493 368.476C176.713 372.746 171.623 376.146 166.833 379.716C164.313 381.589 161.83 383.149 159.383 384.396C158.176 385.016 155.463 386.399 151.243 388.546C151.194 388.569 151.138 388.575 151.086 388.564C151.034 388.553 150.987 388.526 150.953 388.486L150.753 388.266C150.71 388.217 150.679 388.16 150.661 388.098C150.643 388.036 150.638 387.971 150.647 387.906C150.657 387.842 150.68 387.78 150.716 387.725C150.751 387.669 150.798 387.622 150.853 387.586C154.333 385.396 158.053 383.106 161.023 380.486C165.933 376.156 169.093 373.966 173.053 369.666C188.886 352.486 201.396 333.252 210.583 311.966C210.649 311.817 210.67 311.652 210.643 311.49C210.617 311.329 210.544 311.178 210.433 311.056C208.426 308.829 206.46 306.556 204.533 304.236C197.823 296.156 194.733 287.316 192.263 277.236L194.713 263.066Z" fill="#DEDDDC"/>
<path d="M356.763 267.316L357.003 268.596C355.043 284.246 347.743 294.006 336.753 304.486C336.629 304.604 336.542 304.756 336.505 304.922C336.467 305.088 336.481 305.26 336.543 305.416C343.263 323.156 352.303 339.529 363.663 354.536C372.333 365.986 383.133 376.506 394.233 384.866C395.293 385.659 397.733 387.262 401.553 389.676C401.56 389.68 401.566 389.685 401.571 389.691C401.576 389.698 401.579 389.705 401.581 389.714C401.583 389.722 401.583 389.731 401.582 389.74C401.58 389.749 401.577 389.758 401.573 389.766L401.473 390.006C401.461 390.036 401.443 390.063 401.42 390.086C401.398 390.109 401.371 390.127 401.341 390.139C401.311 390.151 401.279 390.157 401.247 390.156C401.214 390.156 401.183 390.149 401.153 390.136C392.853 386.742 385.83 383.039 380.083 379.026C371.53 373.046 363.68 365.646 356.533 356.826C344.986 342.579 334.76 325.796 325.853 306.476L334.583 302.146C334.718 302.077 334.826 301.965 334.888 301.826C334.95 301.688 334.962 301.532 334.923 301.386C333.113 294.896 331.263 289.576 335.353 283.426C338.84 278.172 343.43 274.139 349.123 271.326C351.69 270.046 354.236 268.709 356.763 267.316Z" fill="#DEDDDC"/>
<path d="M357.003 268.596C358.936 281.489 361.65 294.129 365.143 306.516C370.683 326.156 379.26 344.482 390.873 361.496C400.033 374.906 413.323 387.666 428.573 394.686C428.616 394.707 428.651 394.741 428.674 394.784C428.697 394.826 428.705 394.874 428.698 394.921C428.692 394.968 428.67 395.01 428.636 395.041C428.603 395.073 428.559 395.092 428.513 395.096C419.746 396.122 411.283 395.176 403.123 392.256C383.173 385.106 366.033 371.556 353.393 354.716C340.303 337.276 328.583 317.326 321.373 297.016C320.953 295.829 320.633 294.639 320.413 293.446C321.146 293.866 321.553 294.616 321.633 295.696C321.646 295.855 321.683 296.01 321.743 296.156L325.853 306.476C334.76 325.796 344.986 342.579 356.533 356.826C363.68 365.646 371.53 373.046 380.083 379.026C385.83 383.039 392.853 386.742 401.153 390.136C401.183 390.149 401.214 390.156 401.247 390.156C401.279 390.157 401.311 390.151 401.341 390.139C401.371 390.127 401.398 390.109 401.42 390.086C401.443 390.063 401.461 390.036 401.473 390.006L401.573 389.766C401.577 389.758 401.58 389.749 401.582 389.74C401.583 389.731 401.583 389.722 401.581 389.714C401.579 389.706 401.576 389.698 401.571 389.691C401.566 389.685 401.56 389.68 401.553 389.676C397.733 387.263 395.293 385.659 394.233 384.866C383.133 376.506 372.333 365.986 363.663 354.536C352.303 339.529 343.263 323.156 336.543 305.416C336.481 305.26 336.467 305.088 336.505 304.922C336.542 304.756 336.629 304.604 336.753 304.486C347.743 294.006 355.043 284.246 357.003 268.596Z" fill="white"/>
<path d="M276.363 270.016C287.193 270.886 296.113 273.566 304.233 279.036C304.282 279.062 304.318 279.106 304.336 279.159C304.353 279.211 304.351 279.269 304.328 279.319C304.305 279.37 304.264 279.41 304.213 279.431C304.162 279.453 304.105 279.455 304.053 279.436C300.453 278.383 296.46 277.433 292.073 276.586C286.706 275.539 281.443 275.209 276.283 275.596C275.663 273.489 275.69 271.629 276.363 270.016Z" fill="#E65A27"/>
<path d="M192.263 277.236C194.733 287.316 197.823 296.156 204.533 304.236C206.46 306.556 208.426 308.829 210.433 311.056C210.544 311.178 210.617 311.329 210.643 311.49C210.67 311.652 210.649 311.817 210.583 311.966C201.396 333.252 188.886 352.486 173.053 369.666C169.093 373.966 165.933 376.156 161.023 380.486C158.053 383.106 154.333 385.396 150.853 387.586C150.798 387.622 150.751 387.669 150.716 387.725C150.68 387.78 150.657 387.842 150.647 387.906C150.638 387.971 150.643 388.036 150.661 388.098C150.679 388.16 150.71 388.217 150.753 388.266L150.953 388.486C150.987 388.526 151.034 388.553 151.086 388.564C151.138 388.575 151.194 388.569 151.243 388.546C155.463 386.399 158.176 385.016 159.383 384.396C161.83 383.149 164.313 381.589 166.833 379.716C171.623 376.146 176.713 372.746 179.493 368.476C179.689 368.182 179.963 367.95 180.283 367.806C183.07 366.566 185.786 364.139 188.433 360.526C189.153 359.539 190.3 358.302 191.873 356.816C192.866 355.869 193.976 354.586 195.203 352.966C197.57 349.826 200.7 345.402 204.593 339.696C212.486 328.129 219.133 316.526 224.533 304.886C225.333 301.946 226.426 300.043 227.813 299.176C226.16 303.829 224.006 308.756 221.353 313.956C204.573 346.836 180.833 380.436 144.683 392.476C140.47 393.882 135.84 394.933 130.793 395.626L122.083 395.116C122.019 395.11 121.959 395.084 121.911 395.042C121.864 394.999 121.831 394.942 121.817 394.88C121.804 394.817 121.811 394.752 121.837 394.694C121.863 394.636 121.907 394.587 121.963 394.556C138.373 386.166 150.363 374.006 160.963 358.316C171.743 342.349 179.843 325.126 185.263 306.646C188.103 296.979 190.436 287.176 192.263 277.236Z" fill="white"/>
<path d="M320.303 285.816C320.123 287.016 319.953 288.322 319.793 289.736C319.746 290.169 319.846 290.399 320.093 290.426L320.053 292.456C319.846 292.336 319.666 292.346 319.513 292.486C319.426 292.566 319.37 292.749 319.343 293.036C319.183 294.422 319.043 295.552 318.923 296.426C316.883 310.712 315.416 322.156 314.523 330.756C312.943 345.896 311.86 362.636 311.273 380.976C310.8 395.709 311.103 409.456 312.183 422.216C312.683 428.182 313.66 433.846 315.113 439.206C316.823 445.506 320.473 451.206 327.983 450.446C331.993 450.046 335.953 446.966 340.773 444.096C345.923 441.026 351.023 443.706 353.543 448.576C354.023 449.509 354.22 451.346 354.133 454.086C354.066 456.159 354.076 458.399 354.163 460.806C354.164 460.818 354.163 460.83 354.16 460.841C354.157 460.853 354.151 460.863 354.144 460.873C354.136 460.882 354.127 460.89 354.117 460.895C354.106 460.901 354.095 460.905 354.083 460.906H354.073C354.052 460.915 354.03 460.919 354.007 460.918C353.985 460.916 353.963 460.91 353.943 460.898C353.922 460.886 353.905 460.87 353.891 460.851C353.877 460.832 353.868 460.809 353.863 460.786L353.003 456.316C352.996 456.266 352.975 456.219 352.942 456.181C352.91 456.142 352.867 456.114 352.82 456.098C352.772 456.083 352.721 456.081 352.672 456.093C352.623 456.105 352.578 456.13 352.543 456.166C341.27 467.232 327.383 471.843 310.883 469.996C297.413 468.496 288.593 461.706 282.633 449.456C279.406 442.802 277.476 435.799 276.843 428.446C276.736 427.199 276.173 425.779 275.153 424.186L275.043 336.676C281.396 337.036 287.753 336.459 294.113 334.946C294.306 334.899 294.43 334.802 294.483 334.656C294.5 334.612 294.507 334.565 294.505 334.518C294.502 334.471 294.49 334.425 294.468 334.384C294.446 334.342 294.416 334.305 294.379 334.277C294.342 334.248 294.299 334.227 294.253 334.216C287.96 332.609 281.56 331.962 275.053 332.276L275.003 305.276C284.116 305.216 293.033 305.929 301.753 307.416C301.812 307.421 301.872 307.407 301.922 307.375C301.973 307.344 302.011 307.296 302.032 307.24C302.052 307.184 302.054 307.123 302.036 307.066C302.018 307.009 301.982 306.96 301.933 306.926C294.74 302.579 286.893 300.166 278.393 299.686C285.14 293.912 292.506 289.246 300.493 285.686C307.046 282.766 313.65 282.809 320.303 285.816ZM276.253 362.366C276.28 362.819 276.213 363.179 276.053 363.446C275.971 363.583 275.931 363.74 275.935 363.899C275.939 364.059 275.989 364.213 276.078 364.345C276.167 364.478 276.292 364.582 276.438 364.645C276.584 364.709 276.746 364.73 276.903 364.706C286.93 363.166 291.93 362.146 291.903 361.646C291.883 361.139 286.81 360.582 276.683 359.976C276.526 359.968 276.37 360.005 276.233 360.081C276.096 360.157 275.983 360.271 275.907 360.408C275.831 360.546 275.795 360.702 275.803 360.859C275.811 361.016 275.863 361.167 275.953 361.296C276.133 361.556 276.233 361.912 276.253 362.366Z" fill="#EF7A35"/>
<path d="M230.793 292.516L231.013 296.236C229.92 298.283 229.196 299.766 228.843 300.686C227.403 304.406 225.603 308.449 223.443 312.816C216.043 327.789 207.18 342.026 196.853 355.526C194.413 358.716 191.833 361.086 189.563 364.206C189.364 364.472 189.139 364.716 188.893 364.936C181.733 371.263 177.106 375.316 175.013 377.096C165.94 384.836 154.976 390.759 142.123 394.866C137.79 396.253 134.013 396.506 130.793 395.626C135.84 394.933 140.47 393.883 144.683 392.476C180.833 380.436 204.573 346.836 221.353 313.956C224.006 308.756 226.16 303.829 227.813 299.176L229.933 292.496C230.246 292.576 230.533 292.583 230.793 292.516Z" fill="#02050A"/>
<path d="M276.413 299.436C277.32 299.356 277.98 299.439 278.393 299.686C286.893 300.166 294.74 302.579 301.933 306.926C301.982 306.96 302.018 307.009 302.036 307.066C302.054 307.123 302.052 307.184 302.032 307.24C302.011 307.296 301.973 307.344 301.922 307.375C301.872 307.407 301.812 307.421 301.753 307.416C293.033 305.929 284.116 305.216 275.003 305.276L275.053 299.936C275.8 299.816 276.253 299.649 276.413 299.436Z" fill="#E65A27"/>
<path d="M274.133 307.776L273.943 331.886C273.943 332.006 273.896 332.122 273.812 332.208C273.728 332.294 273.613 332.343 273.493 332.346C267.066 332.386 260.806 333.069 254.713 334.396C254.638 334.414 254.571 334.459 254.525 334.521C254.478 334.584 254.454 334.66 254.458 334.737C254.462 334.813 254.492 334.886 254.544 334.94C254.597 334.995 254.667 335.029 254.743 335.036L273.183 336.876C273.395 336.898 273.591 336.997 273.733 337.154C273.876 337.311 273.954 337.515 273.953 337.726V359.796C273.953 359.876 273.937 359.956 273.905 360.03C273.873 360.104 273.826 360.171 273.767 360.227C273.709 360.283 273.639 360.327 273.563 360.356C273.486 360.385 273.405 360.398 273.323 360.396C267.896 360.182 262.793 360.592 258.013 361.626C257.949 361.642 257.891 361.678 257.85 361.73C257.809 361.782 257.786 361.846 257.785 361.912C257.784 361.978 257.804 362.043 257.844 362.096C257.883 362.149 257.939 362.188 258.003 362.206C263.503 363.766 268.626 364.669 273.373 364.916C273.562 364.924 273.741 365.006 273.87 365.144C273.999 365.283 274.068 365.466 274.063 365.656C273.733 377.886 274.273 390.266 273.943 401.746C273.523 415.796 273.993 431.926 273.993 444.716C273.993 459.936 274.05 475.159 274.163 490.386C273.71 490.246 273.266 490.036 272.833 489.756C263.26 483.662 255.783 475.952 250.403 466.626C247.756 462.046 245.673 456.696 244.153 450.576C242.44 443.662 241.51 437.962 241.363 433.476C241.09 425.069 240.86 418.566 240.673 413.966C239.586 387.626 237.956 361.326 235.783 335.066C240.683 332.546 245.476 329.969 250.163 327.336C259.156 322.289 267.146 315.769 274.133 307.776Z" fill="#355D93"/>
<path d="M275.043 336.676L275.053 332.276C281.56 331.962 287.96 332.609 294.253 334.216C294.299 334.227 294.342 334.248 294.379 334.277C294.416 334.305 294.446 334.342 294.468 334.384C294.49 334.425 294.502 334.471 294.505 334.518C294.507 334.565 294.5 334.612 294.483 334.656C294.43 334.802 294.306 334.899 294.113 334.946C287.753 336.459 281.396 337.036 275.043 336.676Z" fill="#D85125"/>
<path d="M291.903 361.646C291.93 362.146 286.93 363.166 276.903 364.706C276.746 364.73 276.584 364.709 276.438 364.645C276.292 364.582 276.167 364.478 276.078 364.346C275.989 364.213 275.939 364.059 275.935 363.899C275.931 363.74 275.971 363.583 276.053 363.446C276.213 363.179 276.28 362.819 276.253 362.366C276.233 361.913 276.133 361.556 275.953 361.296C275.863 361.167 275.811 361.016 275.803 360.859C275.795 360.702 275.831 360.546 275.907 360.408C275.983 360.271 276.096 360.157 276.233 360.081C276.37 360.005 276.526 359.968 276.683 359.976C286.81 360.583 291.883 361.139 291.903 361.646Z" fill="#D85125"/>
<path d="M350.083 502.936C350.096 503.889 350.273 504.826 350.613 505.746L346.273 517.486C339.913 521.739 333.32 525.699 326.493 529.366C320.566 532.559 314.636 535.819 308.703 539.146C299.483 544.319 289.966 548.879 280.153 552.826L275.633 553.196C275.542 553.203 275.45 553.191 275.364 553.16C275.278 553.129 275.2 553.08 275.135 553.016C275.07 552.952 275.02 552.876 274.989 552.791C274.958 552.706 274.945 552.616 274.953 552.526C275.293 548.639 275.44 545.963 275.393 544.496C275.113 535.616 275.09 526.276 275.323 516.476C275.325 516.409 275.341 516.343 275.371 516.283C275.401 516.223 275.443 516.17 275.495 516.128C275.548 516.086 275.609 516.056 275.674 516.04C275.739 516.024 275.807 516.023 275.873 516.036C281.166 517.116 286.62 517.923 292.233 518.456C305.653 519.729 319.046 517.406 332.413 511.486C339.02 508.553 344.506 505.109 348.873 501.156C348.981 501.055 349.123 500.997 349.272 500.994C349.421 500.99 349.567 501.041 349.683 501.136C350.11 501.496 350.243 502.096 350.083 502.936Z" fill="#204073"/>
<path d="M346.273 517.486C346.446 517.626 346.59 517.966 346.703 518.506C344.17 520.206 342.286 521.419 341.053 522.146C328.58 529.472 315.436 536.826 301.623 544.206C295.523 547.466 289.033 550.566 282.153 553.506C275.483 556.366 271.913 554.696 264.853 551.566C259.473 549.179 254.196 546.582 249.023 543.776C249.363 543.056 249.89 542.872 250.603 543.226C256.263 546.026 261.92 548.796 267.573 551.536C271.646 553.516 275.84 553.946 280.153 552.826C289.966 548.879 299.483 544.319 308.703 539.146C314.636 535.819 320.566 532.559 326.493 529.366C333.32 525.699 339.913 521.739 346.273 517.486Z" fill="#02050A"/>
<path d="M263.053 569.676C263.117 569.698 263.173 569.739 263.212 569.794C263.252 569.849 263.274 569.915 263.275 569.982C263.276 570.05 263.256 570.116 263.218 570.173C263.18 570.229 263.126 570.272 263.063 570.296C258.463 572.003 253.683 572.616 248.723 572.136C248.395 572.105 248.086 571.968 247.843 571.746C247.599 571.524 247.434 571.23 247.373 570.906L246.893 568.416C246.873 568.31 246.876 568.202 246.901 568.098C246.926 567.993 246.974 567.896 247.04 567.811C247.106 567.727 247.19 567.658 247.286 567.609C247.381 567.559 247.486 567.531 247.593 567.526C252.96 567.266 258.113 567.983 263.053 569.676Z" fill="#DEDDDC"/>
</svg>
